<svg width="47" height="48" viewBox="0 0 47 48" fill="none" xmlns="http://www.w3.org/2000/svg">
<path d="M0 6.75154C0 5.23929 0.529294 3.9917 1.58784 3.00878C2.64638 2.02582 4.02254 1.53436 5.71622 1.53436C7.37968 1.53436 8.72553 2.01825 9.75386 2.9861C10.8124 3.98417 11.3417 5.28465 11.3417 6.88764C11.3417 8.33938 10.8276 9.54913 9.79923 10.517C8.74068 11.5151 7.34942 12.0141 5.62548 12.0141H5.58012C3.91665 12.0141 2.5708 11.5151 1.54247 10.517C0.514142 9.51892 0 8.26376 0 6.75154ZM0.589768 46.4475V16.1425H10.6612V46.4475H0.589768ZM16.2413 46.4475H26.3127V29.5257C26.3127 28.4671 26.4337 27.6505 26.6757 27.0759C27.0991 26.0475 27.7418 25.178 28.6038 24.4673C29.4657 23.7565 30.547 23.4012 31.8475 23.4012C35.2349 23.4012 36.9286 25.6846 36.9286 30.2515V46.4475H47V29.072C47 24.5958 45.9415 21.2009 43.8243 18.8872C41.7072 16.5735 38.9096 15.4166 35.4315 15.4166C31.5299 15.4166 28.4903 17.0952 26.3127 20.4523V20.5431H26.2674L26.3127 20.4523V16.1425H16.2413C16.3018 17.1103 16.332 20.1196 16.332 25.1705C16.332 30.2213 16.3018 37.3136 16.2413 46.4475Z" fill="#0A66C2"/>
</svg>
