<svg width="48" height="48" viewBox="0 0 48 48" fill="none" xmlns="http://www.w3.org/2000/svg">
<g clip-path="url(#clip0_85_279)">
<path d="M0.214355 7.01076C0.214355 5.4985 0.74365 4.25092 1.80219 3.268C2.86074 2.28504 4.23689 1.79358 5.93057 1.79358C7.59404 1.79358 8.93989 2.27746 9.96822 3.24532C11.0268 4.24339 11.5561 5.54387 11.5561 7.14686C11.5561 8.5986 11.0419 9.80835 10.0136 10.7762C8.95504 11.7743 7.56378 12.2733 5.83984 12.2733H5.79447C4.13101 12.2733 2.78516 11.7743 1.75683 10.7762C0.728497 9.77813 0.214355 8.52297 0.214355 7.01076ZM0.804124 46.7067V16.4017H10.8756V46.7067H0.804124ZM16.4557 46.7067H26.5271V29.7849C26.5271 28.7263 26.6481 27.9097 26.89 27.3351C27.3134 26.3068 27.9561 25.4372 28.8181 24.7265C29.6801 24.0157 30.7613 23.6604 32.0618 23.6604C35.4492 23.6604 37.1429 25.9438 37.1429 30.5108V46.7067H47.2144V29.3312C47.2144 24.855 46.1558 21.4601 44.0387 19.1464C41.9215 16.8327 39.124 15.6758 35.6458 15.6758C31.7443 15.6758 28.7047 17.3544 26.5271 20.7115V20.8023H26.4817L26.5271 20.7115V16.4017H16.4557C16.5161 17.3695 16.5464 20.3788 16.5464 25.4297C16.5464 30.4805 16.5161 37.5728 16.4557 46.7067Z" fill="#0A66C2"/>
</g>
<defs>
<clipPath id="clip0_85_279">
<rect width="47" height="47" fill="white" transform="translate(0.214355 0.740723)"/>
</clipPath>
</defs>
</svg>
