<svg width="47" height="48" viewBox="0 0 47 48" fill="none" xmlns="http://www.w3.org/2000/svg">
<path d="M26.5108 24.4275C26.5108 31.8118 20.5761 37.798 13.2556 37.798C5.93518 37.798 0 31.8105 0 24.4275C0 17.0445 5.93473 11.0566 13.2556 11.0566C20.5765 11.0566 26.5108 17.0432 26.5108 24.4275Z" fill="black"/>
<path d="M41.052 24.4275C41.052 31.3782 38.0847 37.0152 34.4242 37.0152C30.7638 37.0152 27.7964 31.3782 27.7964 24.4275C27.7964 17.4767 30.7633 11.8398 34.4238 11.8398C38.0842 11.8398 41.0516 17.4749 41.0516 24.4275" fill="black"/>
<path d="M47 24.4275C47 30.6537 45.9565 35.7041 44.6689 35.7041C43.3814 35.7041 42.3384 30.655 42.3384 24.4275C42.3384 18.2 43.3818 13.1509 44.6689 13.1509C45.9561 13.1509 47 18.1995 47 24.4275Z" fill="black"/>
</svg>
