<svg width="48" height="48" viewBox="0 0 48 48" fill="none" xmlns="http://www.w3.org/2000/svg">
<g clip-path="url(#clip0_85_282)">
<path d="M26.7252 24.6866C26.7252 32.0709 20.7904 38.057 13.47 38.057C6.14953 38.057 0.214355 32.0696 0.214355 24.6866C0.214355 17.3036 6.14908 11.3157 13.47 11.3157C20.7909 11.3157 26.7252 17.3023 26.7252 24.6866Z" fill="black"/>
<path d="M41.2664 24.6866C41.2664 31.6373 38.299 37.2742 34.6386 37.2742C30.9781 37.2742 28.0107 31.6373 28.0107 24.6866C28.0107 17.7358 30.9777 12.0989 34.6381 12.0989C38.2986 12.0989 41.2659 17.734 41.2659 24.6866" fill="black"/>
<path d="M47.2143 24.6866C47.2143 30.9128 46.1709 35.9632 44.8833 35.9632C43.5957 35.9632 42.5527 30.9141 42.5527 24.6866C42.5527 18.4591 43.5962 13.41 44.8833 13.41C46.1704 13.41 47.2143 18.4586 47.2143 24.6866Z" fill="black"/>
</g>
<defs>
<clipPath id="clip0_85_282">
<rect x="0.214355" y="0.740723" width="47" height="47" rx="6" fill="white"/>
</clipPath>
</defs>
</svg>
