<svg width="25" height="25" viewBox="0 0 25 25" fill="none" xmlns="http://www.w3.org/2000/svg">
<path d="M10.532 4.65231H5.07962V19.9191H10.532V4.65231ZM20.3464 4.65231H14.894V10.1047H20.3464V4.65231ZM20.3464 14.4667V19.9191H14.894V14.4667H20.3464ZM3.98914 4.65231C3.98914 4.3631 4.10403 4.08573 4.30853 3.88122C4.51304 3.67672 4.79041 3.56183 5.07962 3.56183H10.532C10.8213 3.56183 11.0986 3.67672 11.3031 3.88122C11.5076 4.08573 11.6225 4.3631 11.6225 4.65231V19.9191C11.6225 20.2083 11.5076 20.4857 11.3031 20.6902C11.0986 20.8947 10.8213 21.0096 10.532 21.0096H5.07962C4.79041 21.0096 4.51304 20.8947 4.30853 20.6902C4.10403 20.4857 3.98914 20.2083 3.98914 19.9191V4.65231ZM13.8035 4.65231C13.8035 4.3631 13.9184 4.08573 14.1229 3.88122C14.3274 3.67672 14.6048 3.56183 14.894 3.56183H20.3464C20.6356 3.56183 20.913 3.67672 21.1175 3.88122C21.322 4.08573 21.4369 4.3631 21.4369 4.65231V10.1047C21.4369 10.394 21.322 10.6713 21.1175 10.8758C20.913 11.0803 20.6356 11.1952 20.3464 11.1952H14.894C14.6048 11.1952 14.3274 11.0803 14.1229 10.8758C13.9184 10.6713 13.8035 10.394 13.8035 10.1047V4.65231ZM14.894 13.3762C14.6048 13.3762 14.3274 13.4911 14.1229 13.6956C13.9184 13.9001 13.8035 14.1775 13.8035 14.4667V19.9191C13.8035 20.2083 13.9184 20.4857 14.1229 20.6902C14.3274 20.8947 14.6048 21.0096 14.894 21.0096H20.3464C20.6356 21.0096 20.913 20.8947 21.1175 20.6902C21.322 20.4857 21.4369 20.2083 21.4369 19.9191V14.4667C21.4369 14.1775 21.322 13.9001 21.1175 13.6956C20.913 13.4911 20.6356 13.3762 20.3464 13.3762H14.894Z" fill="#313131"/>
</svg>
