<svg width="25" height="25" viewBox="0 0 25 25" fill="none" xmlns="http://www.w3.org/2000/svg">
<path d="M21.4682 3.36362H2.53481C2.16592 3.36362 1.81213 3.51017 1.55129 3.77101C1.29044 4.03186 1.1439 4.38564 1.1439 4.75454V20.2455C1.1439 20.6144 1.29044 20.9682 1.55129 21.229C1.81213 21.4899 2.16592 21.6364 2.53481 21.6364H21.4682C21.8371 21.6364 22.1909 21.4899 22.4518 21.229C22.7126 20.9682 22.8592 20.6144 22.8592 20.2455V4.75454C22.8592 4.38564 22.7126 4.03186 22.4518 3.77101C22.1909 3.51017 21.8371 3.36362 21.4682 3.36362ZM21.7985 20.2455C21.7985 20.3331 21.7637 20.4171 21.7018 20.4791C21.6399 20.541 21.5558 20.5758 21.4682 20.5758H2.53481C2.44721 20.5758 2.36319 20.541 2.30125 20.4791C2.23931 20.4171 2.20451 20.3331 2.20451 20.2455V4.75454C2.20451 4.66694 2.23931 4.58292 2.30125 4.52098C2.3632 4.45903 2.44721 4.42423 2.53481 4.42423H21.4682C21.5558 4.42423 21.6399 4.45903 21.7018 4.52098C21.7637 4.58292 21.7985 4.66694 21.7985 4.75454V20.2455Z" fill="#313131" stroke="#313131" stroke-width="0.2"/>
<path d="M17.8894 18.5378H18.0394V18.3878V16.4252C18.0394 15.5736 17.3056 14.8491 16.2283 14.3464C15.1388 13.838 13.6443 13.5276 12.0016 13.5276C10.3589 13.5276 8.86436 13.838 7.77488 14.3464C6.69758 14.8491 5.96377 15.5736 5.96377 16.4252V18.3878V18.5378H6.11377H17.8894ZM12.0016 14.6126C13.3971 14.6126 14.6537 14.8306 15.556 15.1776C16.0076 15.3514 16.3628 15.5546 16.6025 15.7725C16.8421 15.9904 16.9544 16.2112 16.9544 16.4252V17.4528H7.04881V16.4252C7.04881 16.2112 7.16107 15.9904 7.40071 15.7725C7.64039 15.5546 7.99557 15.3514 8.44719 15.1776C9.34944 14.8306 10.606 14.6126 12.0016 14.6126ZM14.0505 7.31088C13.5071 6.76747 12.7701 6.46218 12.0016 6.46218C11.2331 6.46218 10.4961 6.76747 9.95264 7.31088C9.40923 7.8543 9.10394 8.59133 9.10394 9.35983C9.10394 10.1283 9.40923 10.8654 9.95264 11.4088C10.4961 11.9522 11.2331 12.2575 12.0016 12.2575C12.7701 12.2575 13.5071 11.9522 14.0505 11.4088C14.5939 10.8654 14.8992 10.1283 14.8992 9.35983C14.8992 8.59133 14.5939 7.8543 14.0505 7.31088ZM10.7199 8.07812C11.0598 7.7382 11.5209 7.54722 12.0016 7.54722C12.4823 7.54722 12.9434 7.7382 13.2833 8.07812C13.6232 8.41805 13.8142 8.8791 13.8142 9.35983C13.8142 9.84056 13.6232 10.3016 13.2833 10.6415C12.9434 10.9815 12.4823 11.1724 12.0016 11.1724C11.5209 11.1724 11.0598 10.9815 10.7199 10.6415C10.38 10.3016 10.189 9.84056 10.189 9.35983C10.189 8.8791 10.38 8.41805 10.7199 8.07812Z" fill="#313131" stroke="#313131" stroke-width="0.3"/>
</svg>
