<svg width="25" height="25" viewBox="0 0 25 25" fill="none" xmlns="http://www.w3.org/2000/svg">
<path d="M20.1039 5.55579H3.90077C3.59382 5.55579 3.29944 5.67772 3.08239 5.89477C2.86534 6.11182 2.74341 6.4062 2.74341 6.71315V18.2868C2.74341 18.5937 2.86534 18.8881 3.08239 19.1052C3.29944 19.3222 3.59382 19.4442 3.90077 19.4442H20.1039C20.4108 19.4442 20.7052 19.3222 20.9222 19.1052C21.1393 18.8881 21.2612 18.5937 21.2612 18.2868V6.71315C21.2612 6.4062 21.1393 6.11182 20.9222 5.89477C20.7052 5.67772 20.4108 5.55579 20.1039 5.55579ZM19.2127 18.2868H4.86138L8.91216 14.0971L8.07886 13.2928L3.90077 17.6155V7.59275L11.0938 14.751C11.3106 14.9666 11.604 15.0876 11.9097 15.0876C12.2155 15.0876 12.5088 14.9666 12.7257 14.751L20.1039 7.41336V17.5403L15.8448 13.2812L15.0288 14.0971L19.2127 18.2868ZM4.65885 6.71315H19.1664L11.9097 13.9293L4.65885 6.71315Z" fill="#313131"/>
</svg>
