<svg width="25" height="25" viewBox="0 0 25 25" fill="none" xmlns="http://www.w3.org/2000/svg">
<path d="M21.4675 3.36362H2.53408C2.16519 3.36362 1.8114 3.51017 1.55055 3.77101C1.28971 4.03186 1.14316 4.38564 1.14316 4.75454V20.2455C1.14316 20.6144 1.28971 20.9682 1.55055 21.229C1.8114 21.4899 2.16519 21.6364 2.53408 21.6364H21.4675C21.8364 21.6364 22.1902 21.4899 22.451 21.229C22.7119 20.9682 22.8584 20.6144 22.8584 20.2455V4.75454C22.8584 4.38564 22.7119 4.03186 22.451 3.77101C22.1902 3.51017 21.8364 3.36362 21.4675 3.36362ZM21.7978 20.2455C21.7978 20.3331 21.763 20.4171 21.7011 20.4791C21.6391 20.541 21.5551 20.5758 21.4675 20.5758H2.53408C2.44648 20.5758 2.36246 20.541 2.30052 20.4791C2.23857 20.4171 2.20377 20.3331 2.20377 20.2455V4.75454C2.20377 4.66694 2.23857 4.58292 2.30052 4.52098C2.36246 4.45903 2.44648 4.42423 2.53408 4.42423H21.4675C21.5551 4.42423 21.6391 4.45903 21.7011 4.52098C21.763 4.58292 21.7978 4.66694 21.7978 4.75454V20.2455Z" fill="#313131" stroke="#313131" stroke-width="0.2"/>
<path d="M17.8889 18.5378H18.0389V18.3878V16.4252C18.0389 15.5736 17.3051 14.8491 16.2278 14.3464C15.1383 13.838 13.6438 13.5276 12.0011 13.5276C10.3584 13.5276 8.86387 13.838 7.77439 14.3464C6.69709 14.8491 5.96328 15.5736 5.96328 16.4252V18.3878V18.5378H6.11328H17.8889ZM12.0011 14.6126C13.3966 14.6126 14.6533 14.8306 15.5555 15.1776C16.0071 15.3514 16.3623 15.5546 16.602 15.7725C16.8416 15.9904 16.9539 16.2112 16.9539 16.4252V17.4528H7.04832V16.4252C7.04832 16.2112 7.16058 15.9904 7.40022 15.7725C7.6399 15.5546 7.99508 15.3514 8.4467 15.1776C9.34895 14.8306 10.6056 14.6126 12.0011 14.6126ZM14.05 7.31088C13.5066 6.76747 12.7696 6.46218 12.0011 6.46218C11.2326 6.46218 10.4956 6.76747 9.95215 7.31088C9.40874 7.8543 9.10345 8.59133 9.10345 9.35983C9.10345 10.1283 9.40874 10.8654 9.95215 11.4088C10.4956 11.9522 11.2326 12.2575 12.0011 12.2575C12.7696 12.2575 13.5066 11.9522 14.05 11.4088C14.5935 10.8654 14.8987 10.1283 14.8987 9.35983C14.8987 8.59133 14.5935 7.8543 14.05 7.31088ZM10.7194 8.07812C11.0593 7.7382 11.5204 7.54722 12.0011 7.54722C12.4818 7.54722 12.9429 7.7382 13.2828 8.07812C13.6227 8.41805 13.8137 8.8791 13.8137 9.35983C13.8137 9.84056 13.6227 10.3016 13.2828 10.6415C12.9429 10.9815 12.4818 11.1724 12.0011 11.1724C11.5204 11.1724 11.0593 10.9815 10.7194 10.6415C10.3795 10.3016 10.1885 9.84056 10.1885 9.35983C10.1885 8.8791 10.3795 8.41805 10.7194 8.07812Z" fill="#313131" stroke="#313131" stroke-width="0.3"/>
</svg>
