<svg width="25" height="25" viewBox="0 0 25 25" fill="none" xmlns="http://www.w3.org/2000/svg">
<path d="M9.82074 4.84818H4.36832V20.115H9.82074V4.84818ZM19.6351 4.84818H14.1827V10.3006H19.6351V4.84818ZM19.6351 14.6625V20.115H14.1827V14.6625H19.6351ZM3.27783 4.84818C3.27783 4.55896 3.39272 4.28159 3.59723 4.07709C3.80173 3.87258 4.0791 3.75769 4.36832 3.75769H9.82074C10.11 3.75769 10.3873 3.87258 10.5918 4.07709C10.7963 4.28159 10.9112 4.55896 10.9112 4.84818V20.115C10.9112 20.4042 10.7963 20.6815 10.5918 20.886C10.3873 21.0906 10.11 21.2054 9.82074 21.2054H4.36832C4.0791 21.2054 3.80173 21.0906 3.59723 20.886C3.39272 20.6815 3.27783 20.4042 3.27783 20.115V4.84818ZM13.0922 4.84818C13.0922 4.55896 13.2071 4.28159 13.4116 4.07709C13.6161 3.87258 13.8935 3.75769 14.1827 3.75769H19.6351C19.9243 3.75769 20.2017 3.87258 20.4062 4.07709C20.6107 4.28159 20.7256 4.55896 20.7256 4.84818V10.3006C20.7256 10.5898 20.6107 10.8672 20.4062 11.0717C20.2017 11.2762 19.9243 11.3911 19.6351 11.3911H14.1827C13.8935 11.3911 13.6161 11.2762 13.4116 11.0717C13.2071 10.8672 13.0922 10.5898 13.0922 10.3006V4.84818ZM14.1827 13.5721C13.8935 13.5721 13.6161 13.6869 13.4116 13.8914C13.2071 14.096 13.0922 14.3733 13.0922 14.6625V20.115C13.0922 20.4042 13.2071 20.6815 13.4116 20.886C13.6161 21.0906 13.8935 21.2054 14.1827 21.2054H19.6351C19.9243 21.2054 20.2017 21.0906 20.4062 20.886C20.6107 20.6815 20.7256 20.4042 20.7256 20.115V14.6625C20.7256 14.3733 20.6107 14.096 20.4062 13.8914C20.2017 13.6869 19.9243 13.5721 19.6351 13.5721H14.1827Z" fill="#313131"/>
</svg>
