<svg width="25" height="25" viewBox="0 0 25 25" fill="none" xmlns="http://www.w3.org/2000/svg">
<path d="M10.5329 4.65231H5.08047V19.9191H10.5329V4.65231ZM20.3473 4.65231H14.8948V10.1047H20.3473V4.65231ZM20.3473 14.4667V19.9191H14.8948V14.4667H20.3473ZM3.98999 4.65231C3.98999 4.3631 4.10488 4.08573 4.30939 3.88122C4.51389 3.67672 4.79126 3.56183 5.08047 3.56183H10.5329C10.8221 3.56183 11.0995 3.67672 11.304 3.88122C11.5085 4.08573 11.6234 4.3631 11.6234 4.65231V19.9191C11.6234 20.2083 11.5085 20.4857 11.304 20.6902C11.0995 20.8947 10.8221 21.0096 10.5329 21.0096H5.08047C4.79126 21.0096 4.51389 20.8947 4.30939 20.6902C4.10488 20.4857 3.98999 20.2083 3.98999 19.9191V4.65231ZM13.8044 4.65231C13.8044 4.3631 13.9192 4.08573 14.1237 3.88122C14.3283 3.67672 14.6056 3.56183 14.8948 3.56183H20.3473C20.6365 3.56183 20.9138 3.67672 21.1183 3.88122C21.3229 4.08573 21.4377 4.3631 21.4377 4.65231V10.1047C21.4377 10.394 21.3229 10.6713 21.1183 10.8758C20.9138 11.0803 20.6365 11.1952 20.3473 11.1952H14.8948C14.6056 11.1952 14.3283 11.0803 14.1237 10.8758C13.9192 10.6713 13.8044 10.394 13.8044 10.1047V4.65231ZM14.8948 13.3762C14.6056 13.3762 14.3283 13.4911 14.1237 13.6956C13.9192 13.9001 13.8044 14.1775 13.8044 14.4667V19.9191C13.8044 20.2083 13.9192 20.4857 14.1237 20.6902C14.3283 20.8947 14.6056 21.0096 14.8948 21.0096H20.3473C20.6365 21.0096 20.9138 20.8947 21.1183 20.6902C21.3229 20.4857 21.4377 20.2083 21.4377 19.9191V14.4667C21.4377 14.1775 21.3229 13.9001 21.1183 13.6956C20.9138 13.4911 20.6365 13.3762 20.3473 13.3762H14.8948Z" fill="#313131"/>
</svg>
