<svg width="25" height="25" viewBox="0 0 25 25" fill="none" xmlns="http://www.w3.org/2000/svg">
<path d="M22.179 3.14933H3.24554C2.87664 3.14933 2.52286 3.29587 2.26201 3.55672C2.00116 3.81757 1.85462 4.17135 1.85462 4.54024V20.0312C1.85462 20.4001 2.00116 20.7539 2.26201 21.0148C2.52286 21.2756 2.87664 21.4221 3.24554 21.4221H22.179C22.5479 21.4221 22.9016 21.2756 23.1625 21.0148C23.4233 20.7539 23.5699 20.4001 23.5699 20.0312V4.54024C23.5699 4.17135 23.4233 3.81757 23.1625 3.55672C22.9016 3.29587 22.5479 3.14933 22.179 3.14933ZM22.5093 20.0312C22.5093 20.1188 22.4745 20.2028 22.4125 20.2648C22.3506 20.3267 22.2666 20.3615 22.179 20.3615H3.24554C3.15793 20.3615 3.07392 20.3267 3.01197 20.2648C2.95003 20.2028 2.91523 20.1188 2.91523 20.0312V4.54024C2.91523 4.45264 2.95003 4.36863 3.01197 4.30668C3.07392 4.24474 3.15793 4.20994 3.24554 4.20994H22.179C22.2666 4.20994 22.3506 4.24474 22.4125 4.30668C22.4745 4.36863 22.5093 4.45264 22.5093 4.54024V20.0312Z" fill="#313131" stroke="#313131" stroke-width="0.2"/>
<path d="M18.6002 18.3235H18.7502V18.1735V16.2109C18.7502 15.3593 18.0164 14.6348 16.9391 14.1321C15.8496 13.6237 14.3551 13.3133 12.7124 13.3133C11.0697 13.3133 9.57514 13.6237 8.48566 14.1321C7.40837 14.6348 6.67455 15.3593 6.67455 16.2109V18.1735V18.3235H6.82455H18.6002ZM12.7124 14.3983C14.1079 14.3983 15.3645 14.6163 16.2668 14.9634C16.7184 15.1371 17.0736 15.3403 17.3133 15.5582C17.5529 15.7761 17.6651 15.9969 17.6651 16.2109V17.2385H7.7596V16.2109C7.7596 15.9969 7.87185 15.7761 8.11149 15.5582C8.35117 15.3403 8.70636 15.1371 9.15798 14.9634C10.0602 14.6163 11.3168 14.3983 12.7124 14.3983ZM14.7613 7.09659C14.2179 6.55318 13.4809 6.24789 12.7124 6.24789C11.9439 6.24789 11.2068 6.55318 10.6634 7.09659C10.12 7.64 9.81472 8.37703 9.81472 9.14554C9.81472 9.91404 10.12 10.6511 10.6634 11.1945C11.2068 11.7379 11.9439 12.0432 12.7124 12.0432C13.4809 12.0432 14.2179 11.7379 14.7613 11.1945C15.3047 10.6511 15.61 9.91404 15.61 9.14554C15.61 8.37703 15.3047 7.64 14.7613 7.09659ZM11.4307 7.86383C11.7706 7.5239 12.2316 7.33293 12.7124 7.33293C13.1931 7.33293 13.6541 7.5239 13.9941 7.86383C14.334 8.20376 14.525 8.6648 14.525 9.14554C14.525 9.62627 14.334 10.0873 13.9941 10.4272C13.6541 10.7672 13.1931 10.9581 12.7124 10.9581C12.2316 10.9581 11.7706 10.7672 11.4307 10.4272C11.0907 10.0873 10.8998 9.62627 10.8998 9.14554C10.8998 8.6648 11.0907 8.20376 11.4307 7.86383Z" fill="#313131" stroke="#313131" stroke-width="0.3"/>
</svg>
