<svg width="25" height="25" viewBox="0 0 25 25" fill="none" xmlns="http://www.w3.org/2000/svg">
<path d="M20.8177 5.34155H4.61464C4.30769 5.34155 4.01331 5.46349 3.79626 5.68054C3.57921 5.89758 3.45728 6.19196 3.45728 6.49892V18.0726C3.45728 18.3795 3.57921 18.6739 3.79626 18.8909C4.01331 19.108 4.30769 19.2299 4.61464 19.2299H20.8177C21.1247 19.2299 21.4191 19.108 21.6361 18.8909C21.8532 18.6739 21.9751 18.3795 21.9751 18.0726V6.49892C21.9751 6.19196 21.8532 5.89758 21.6361 5.68054C21.4191 5.46349 21.1247 5.34155 20.8177 5.34155ZM19.9266 18.0726H5.57525L9.62602 13.8829L8.79272 13.0785L4.61464 17.4013V7.37851L11.8077 14.5368C12.0245 14.7524 12.3178 14.8734 12.6236 14.8734C12.9294 14.8734 13.2227 14.7524 13.4395 14.5368L20.8177 7.19912V17.3261L16.5586 13.067L15.7427 13.8829L19.9266 18.0726ZM5.37271 6.49892H19.8803L12.6236 13.7151L5.37271 6.49892Z" fill="#313131"/>
</svg>
