<svg width="25" height="25" viewBox="0 0 25 25" fill="none" xmlns="http://www.w3.org/2000/svg">
<path d="M10.5337 4.65231H5.08127V19.9191H10.5337V4.65231ZM20.3481 4.65231H14.8956V10.1047H20.3481V4.65231ZM20.3481 14.4667V19.9191H14.8956V14.4667H20.3481ZM3.99078 4.65231C3.99078 4.3631 4.10567 4.08573 4.31018 3.88122C4.51468 3.67672 4.79205 3.56183 5.08127 3.56183H10.5337C10.8229 3.56183 11.1003 3.67672 11.3048 3.88122C11.5093 4.08573 11.6242 4.3631 11.6242 4.65231V19.9191C11.6242 20.2083 11.5093 20.4857 11.3048 20.6902C11.1003 20.8947 10.8229 21.0096 10.5337 21.0096H5.08127C4.79205 21.0096 4.51468 20.8947 4.31018 20.6902C4.10567 20.4857 3.99078 20.2083 3.99078 19.9191V4.65231ZM13.8051 4.65231C13.8051 4.3631 13.92 4.08573 14.1245 3.88122C14.329 3.67672 14.6064 3.56183 14.8956 3.56183H20.3481C20.6373 3.56183 20.9146 3.67672 21.1191 3.88122C21.3236 4.08573 21.4385 4.3631 21.4385 4.65231V10.1047C21.4385 10.394 21.3236 10.6713 21.1191 10.8758C20.9146 11.0803 20.6373 11.1952 20.3481 11.1952H14.8956C14.6064 11.1952 14.329 11.0803 14.1245 10.8758C13.92 10.6713 13.8051 10.394 13.8051 10.1047V4.65231ZM14.8956 13.3762C14.6064 13.3762 14.329 13.4911 14.1245 13.6956C13.92 13.9001 13.8051 14.1775 13.8051 14.4667V19.9191C13.8051 20.2083 13.92 20.4857 14.1245 20.6902C14.329 20.8947 14.6064 21.0096 14.8956 21.0096H20.3481C20.6373 21.0096 20.9146 20.8947 21.1191 20.6902C21.3236 20.4857 21.4385 20.2083 21.4385 19.9191V14.4667C21.4385 14.1775 21.3236 13.9001 21.1191 13.6956C20.9146 13.4911 20.6373 13.3762 20.3481 13.3762H14.8956Z" fill="#313131"/>
</svg>
