<svg width="25" height="25" viewBox="0 0 25 25" fill="none" xmlns="http://www.w3.org/2000/svg">
<path d="M10.3193 4.86661H4.86685V20.1334H10.3193V4.86661ZM20.1336 4.86661H14.6812V10.319H20.1336V4.86661ZM20.1336 14.681V20.1334H14.6812V14.681H20.1336ZM3.77637 4.86661C3.77637 4.57739 3.89126 4.30002 4.09576 4.09552C4.30027 3.89101 4.57764 3.77612 4.86685 3.77612H10.3193C10.6085 3.77612 10.8859 3.89101 11.0904 4.09552C11.2949 4.30002 11.4098 4.57739 11.4098 4.86661V20.1334C11.4098 20.4226 11.2949 20.7 11.0904 20.9045C10.8859 21.109 10.6085 21.2239 10.3193 21.2239H4.86685C4.57764 21.2239 4.30027 21.109 4.09576 20.9045C3.89126 20.7 3.77637 20.4226 3.77637 20.1334V4.86661ZM13.5907 4.86661C13.5907 4.57739 13.7056 4.30002 13.9101 4.09552C14.1146 3.89101 14.392 3.77612 14.6812 3.77612H20.1336C20.4229 3.77612 20.7002 3.89101 20.9047 4.09552C21.1092 4.30002 21.2241 4.57739 21.2241 4.86661V10.319C21.2241 10.6082 21.1092 10.8856 20.9047 11.0901C20.7002 11.2946 20.4229 11.4095 20.1336 11.4095H14.6812C14.392 11.4095 14.1146 11.2946 13.9101 11.0901C13.7056 10.8856 13.5907 10.6082 13.5907 10.319V4.86661ZM14.6812 13.5905C14.392 13.5905 14.1146 13.7054 13.9101 13.9099C13.7056 14.1144 13.5907 14.3918 13.5907 14.681V20.1334C13.5907 20.4226 13.7056 20.7 13.9101 20.9045C14.1146 21.109 14.392 21.2239 14.6812 21.2239H20.1336C20.4229 21.2239 20.7002 21.109 20.9047 20.9045C21.1092 20.7 21.2241 20.4226 21.2241 20.1334V14.681C21.2241 14.3918 21.1092 14.1144 20.9047 13.9099C20.7002 13.7054 20.4229 13.5905 20.1336 13.5905H14.6812Z" fill="#313131"/>
</svg>
