<svg width="25" height="24" viewBox="0 0 25 24" fill="none" xmlns="http://www.w3.org/2000/svg">
<path d="M10.3193 4.36661H4.86685V19.6334H10.3193V4.36661ZM20.1336 4.36661H14.6812V9.81903H20.1336V4.36661ZM20.1336 14.181V19.6334H14.6812V14.181H20.1336ZM3.77637 4.36661C3.77637 4.07739 3.89126 3.80002 4.09576 3.59552C4.30027 3.39101 4.57764 3.27612 4.86685 3.27612H10.3193C10.6085 3.27612 10.8859 3.39101 11.0904 3.59552C11.2949 3.80002 11.4098 4.07739 11.4098 4.36661V19.6334C11.4098 19.9226 11.2949 20.2 11.0904 20.4045C10.8859 20.609 10.6085 20.7239 10.3193 20.7239H4.86685C4.57764 20.7239 4.30027 20.609 4.09576 20.4045C3.89126 20.2 3.77637 19.9226 3.77637 19.6334V4.36661ZM13.5907 4.36661C13.5907 4.07739 13.7056 3.80002 13.9101 3.59552C14.1146 3.39101 14.392 3.27612 14.6812 3.27612H20.1336C20.4229 3.27612 20.7002 3.39101 20.9047 3.59552C21.1092 3.80002 21.2241 4.07739 21.2241 4.36661V9.81903C21.2241 10.1082 21.1092 10.3856 20.9047 10.5901C20.7002 10.7946 20.4229 10.9095 20.1336 10.9095H14.6812C14.392 10.9095 14.1146 10.7946 13.9101 10.5901C13.7056 10.3856 13.5907 10.1082 13.5907 9.81903V4.36661ZM14.6812 13.0905C14.392 13.0905 14.1146 13.2054 13.9101 13.4099C13.7056 13.6144 13.5907 13.8918 13.5907 14.181V19.6334C13.5907 19.9226 13.7056 20.2 13.9101 20.4045C14.1146 20.609 14.392 20.7239 14.6812 20.7239H20.1336C20.4229 20.7239 20.7002 20.609 20.9047 20.4045C21.1092 20.2 21.2241 19.9226 21.2241 19.6334V14.181C21.2241 13.8918 21.1092 13.6144 20.9047 13.4099C20.7002 13.2054 20.4229 13.0905 20.1336 13.0905H14.6812Z" fill="#313131"/>
</svg>
