<svg width="48" height="48" viewBox="0 0 48 48" fill="none" xmlns="http://www.w3.org/2000/svg">
<g clip-path="url(#clip0_85_268)">
<path fill-rule="evenodd" clip-rule="evenodd" d="M23.7061 1.91577C18.1621 1.91865 12.7998 3.88226 8.57809 7.45548C4.35642 11.0287 1.55068 15.9785 0.662545 21.4199C-0.22559 26.8613 0.861794 32.4393 3.73028 37.1567C6.59877 41.874 11.0613 45.423 16.3199 47.1691C17.4801 47.3844 17.917 46.6654 17.917 46.054C17.917 45.4426 17.8938 43.67 17.8861 41.7321C11.3893 43.1356 10.0165 38.9905 10.0165 38.9905C8.95692 36.2989 7.42553 35.5914 7.42553 35.5914C5.30634 34.1533 7.5841 34.1803 7.5841 34.1803C9.93144 34.3456 11.1651 36.5758 11.1651 36.5758C13.2456 40.1248 16.6293 39.0982 17.9596 38.4983C18.1684 36.9949 18.7756 35.9721 19.4446 35.3915C14.2549 34.807 8.80223 32.8152 8.80223 23.9176C8.77006 21.6101 9.63125 19.3785 11.2076 17.6847C10.9678 17.1002 10.1673 14.7393 11.4357 11.5324C11.4357 11.5324 13.3964 10.9095 17.8591 13.9126C21.6868 12.8718 25.7254 12.8718 29.5532 13.9126C34.012 10.9095 35.9688 11.5324 35.9688 11.5324C37.2411 14.7316 36.4406 17.0925 36.2008 17.6847C37.7822 19.3788 38.6451 21.6142 38.61 23.9253C38.61 32.8422 33.1458 34.807 27.9484 35.3799C28.7837 36.1028 29.53 37.514 29.53 39.6826C29.53 42.7895 29.503 45.2888 29.503 46.054C29.503 46.6731 29.9245 47.396 31.1078 47.1691C36.3671 45.4228 40.83 41.8732 43.6985 37.155C46.5669 32.4369 47.6537 26.858 46.7646 21.4161C45.8754 15.9742 43.0683 11.0244 38.8452 7.45175C34.6222 3.87914 29.2586 1.91682 23.7139 1.91577H23.7061Z" fill="#191717"/>
<path d="M9.19603 35.2569C9.14576 35.3722 8.96013 35.4068 8.80932 35.3261C8.6585 35.2453 8.54636 35.0954 8.6005 34.9762C8.65464 34.857 8.83639 34.8262 8.98721 34.907C9.13803 34.9877 9.25404 35.1415 9.19603 35.2569Z" fill="#191717"/>
<path d="M10.1436 36.3066C10.0635 36.3467 9.97185 36.3579 9.88437 36.3383C9.7969 36.3187 9.71902 36.2694 9.66404 36.199C9.51322 36.0375 9.48227 35.8144 9.59828 35.7145C9.7143 35.6145 9.92314 35.6606 10.074 35.8221C10.2248 35.9836 10.2596 36.2066 10.1436 36.3066Z" fill="#191717"/>
<path d="M11.064 37.6409C10.9209 37.7409 10.6773 37.6409 10.5419 37.4409C10.5045 37.4051 10.4747 37.3621 10.4544 37.3145C10.4341 37.2669 10.4236 37.2158 10.4236 37.1641C10.4236 37.1124 10.4341 37.0613 10.4544 37.0137C10.4747 36.9661 10.5045 36.9231 10.5419 36.8872C10.685 36.7911 10.9287 36.8872 11.064 37.0833C11.1994 37.2794 11.2032 37.5409 11.064 37.6409Z" fill="#191717"/>
<path d="M12.3132 38.9328C12.1856 39.0751 11.9265 39.0367 11.7138 38.8444C11.5011 38.6521 11.4508 38.3907 11.5784 38.2522C11.706 38.1138 11.9651 38.1523 12.1856 38.3407C12.406 38.5291 12.4485 38.7944 12.3132 38.9328Z" fill="#191717"/>
<path d="M14.0648 39.6865C14.0067 39.8672 13.7438 39.9479 13.4808 39.871C13.2178 39.7941 13.0438 39.5788 13.0941 39.3942C13.1444 39.2097 13.4112 39.1251 13.678 39.2097C13.9449 39.2942 14.115 39.498 14.0648 39.6865Z" fill="#191717"/>
<path d="M15.9755 39.8172C15.9755 40.0056 15.7589 40.1671 15.4805 40.171C15.202 40.1748 14.9739 40.021 14.9739 39.8326C14.9739 39.6442 15.1904 39.4827 15.4689 39.4788C15.7473 39.475 15.9755 39.6249 15.9755 39.8172Z" fill="#191717"/>
<path d="M17.7541 39.5212C17.7889 39.7096 17.5956 39.9057 17.3171 39.9518C17.0387 39.998 16.7951 39.8865 16.7603 39.7019C16.7255 39.5173 16.9266 39.3174 17.1973 39.2674C17.468 39.2174 17.7193 39.3328 17.7541 39.5212Z" fill="#191717"/>
</g>
<defs>
<clipPath id="clip0_85_268">
<rect x="0.214355" y="0.740723" width="47" height="47" rx="6" fill="white"/>
</clipPath>
</defs>
</svg>
