<svg width="47" height="48" viewBox="0 0 47 48" fill="none" xmlns="http://www.w3.org/2000/svg">
<path fill-rule="evenodd" clip-rule="evenodd" d="M23.4918 1.65657C17.9477 1.65945 12.5854 3.62305 8.36374 7.19628C4.14207 10.7695 1.33632 15.7193 0.448189 21.1607C-0.439945 26.6021 0.647438 32.1801 3.51593 36.8975C6.38441 41.6148 10.8469 45.1638 16.1056 46.9099C17.2657 47.1252 17.7027 46.4062 17.7027 45.7948C17.7027 45.1834 17.6795 43.4108 17.6717 41.4729C11.175 42.8764 9.80215 38.7313 9.80215 38.7313C8.74256 36.0397 7.21117 35.3322 7.21117 35.3322C5.09199 33.8941 7.36974 33.9211 7.36974 33.9211C9.71709 34.0864 10.9507 36.3166 10.9507 36.3166C13.0312 39.8656 16.4149 38.839 17.7452 38.2391C17.954 36.7357 18.5612 35.7129 19.2302 35.1323C14.0405 34.5478 8.58787 32.556 8.58787 23.6584C8.55571 21.3509 9.41689 19.1193 10.9932 17.4255C10.7535 16.841 9.95296 14.4801 11.2214 11.2732C11.2214 11.2732 13.182 10.6503 17.6447 13.6534C21.4725 12.6126 25.5111 12.6126 29.3389 13.6534C33.7977 10.6503 35.7544 11.2732 35.7544 11.2732C37.0267 14.4724 36.2262 16.8333 35.9865 17.4255C37.5678 19.1196 38.4308 21.355 38.3957 23.6661C38.3957 32.583 32.9314 34.5478 27.734 35.1207C28.5693 35.8436 29.3157 37.2548 29.3157 39.4234C29.3157 42.5303 29.2886 45.0296 29.2886 45.7948C29.2886 46.4139 29.7101 47.1368 30.8934 46.9099C36.1527 45.1636 40.6157 41.614 43.4841 36.8958C46.3525 32.1777 47.4394 26.5988 46.5502 21.1569C45.6611 15.715 42.8539 10.7652 38.6309 7.19255C34.4078 3.61994 29.0443 1.65762 23.4995 1.65657H23.4918Z" fill="#191717"/>
<path d="M8.98167 34.9977C8.9314 35.113 8.74578 35.1476 8.59496 35.0669C8.44414 34.9861 8.33201 34.8362 8.38614 34.717C8.44028 34.5978 8.62204 34.567 8.77286 34.6478C8.92367 34.7285 9.03968 34.8823 8.98167 34.9977Z" fill="#191717"/>
<path d="M9.9292 36.0474C9.84912 36.0875 9.75749 36.0987 9.67002 36.0791C9.58254 36.0594 9.50466 36.0102 9.44968 35.9397C9.29887 35.7782 9.26791 35.5552 9.38393 35.4552C9.49994 35.3553 9.70878 35.4014 9.8596 35.5629C10.0104 35.7244 10.0452 35.9474 9.9292 36.0474Z" fill="#191717"/>
<path d="M10.8497 37.3816C10.7066 37.4816 10.4629 37.3816 10.3276 37.1817C10.2901 37.1458 10.2604 37.1028 10.2401 37.0553C10.2197 37.0077 10.2092 36.9565 10.2092 36.9048C10.2092 36.8532 10.2197 36.802 10.2401 36.7544C10.2604 36.7069 10.2901 36.6639 10.3276 36.628C10.4707 36.5319 10.7143 36.628 10.8497 36.8241C10.985 37.0202 10.9889 37.2817 10.8497 37.3816V37.3816Z" fill="#191717"/>
<path d="M12.0988 38.6736C11.9712 38.8159 11.7121 38.7774 11.4994 38.5852C11.2867 38.3929 11.2365 38.1315 11.3641 37.993C11.4917 37.8546 11.7508 37.8931 11.9712 38.0815C12.1916 38.2699 12.2342 38.5352 12.0988 38.6736V38.6736Z" fill="#191717"/>
<path d="M13.8504 39.4272C13.7924 39.608 13.5294 39.6887 13.2665 39.6118C13.0035 39.5349 12.8295 39.3196 12.8797 39.135C12.93 38.9504 13.1969 38.8658 13.4637 38.9504C13.7305 39.035 13.9007 39.2388 13.8504 39.4272Z" fill="#191717"/>
<path d="M15.7611 39.558C15.7611 39.7464 15.5445 39.9079 15.2661 39.9117C14.9877 39.9156 14.7595 39.7618 14.7595 39.5734C14.7595 39.385 14.9761 39.2235 15.2545 39.2196C15.5329 39.2158 15.7611 39.3657 15.7611 39.558Z" fill="#191717"/>
<path d="M17.5398 39.2619C17.5746 39.4503 17.3812 39.6465 17.1028 39.6926C16.8243 39.7387 16.5807 39.6272 16.5459 39.4427C16.5111 39.2581 16.7122 39.0582 16.9829 39.0082C17.2536 38.9582 17.505 39.0735 17.5398 39.2619Z" fill="#191717"/>
</svg>
