<svg width="24" height="23" viewBox="0 0 24 23" fill="none" xmlns="http://www.w3.org/2000/svg">
<path d="M23.3816 2.65206C16.3858 0.16509 8.78173 -0.0403215 1.66188 2.06534C1.37887 2.13306 1.11241 2.25712 0.878411 2.4301C0.64441 2.60309 0.447665 2.82145 0.299923 3.07215C0.152181 3.32286 0.0564718 3.60076 0.0185098 3.88927C-0.0194522 4.17778 0.00111142 4.47098 0.0789728 4.75137C0.468656 6.31523 1.03707 8.11202 1.71974 9.74108C1.73146 9.77917 1.74978 9.76085 1.74978 9.72276C1.65089 8.95878 2.23835 7.99409 3.39055 7.64323C8.92776 5.88099 14.8868 5.95989 20.3755 7.86811C20.5779 7.93735 20.7922 7.96536 21.0056 7.95048C21.2191 7.93559 21.4274 7.87812 21.6182 7.78146C21.8091 7.68479 21.9787 7.55088 22.117 7.38762C22.2553 7.22437 22.3595 7.03508 22.4235 6.8309C23.1062 4.63344 23.3816 3.14136 23.4497 2.7678C23.4614 2.69821 23.3999 2.67184 23.3816 2.6528V2.65206ZM6.50289 7.48648C5.66419 7.66154 4.50466 7.93696 3.63447 8.22556C1.89481 8.82547 1.97538 10.9424 2.90198 11.6177C2.9701 11.2251 3.39055 10.6911 3.85934 10.5109C5.59607 9.82824 7.46098 9.42025 9.3464 9.25177C8.38831 8.86282 7.45366 8.3054 6.51534 7.48575L6.50289 7.48648ZM20.352 11.7247C17.8527 10.5503 15.1433 9.88896 12.384 9.77963C9.62473 9.6703 6.87152 10.1152 4.28711 11.0881C3.45867 11.4009 2.94007 12.4088 3.45867 13.3654C4.36464 15.0034 5.39279 16.5707 6.53438 18.0541C6.37031 17.4857 6.66037 16.4331 7.77375 16.0888C10.8531 15.1424 14.0841 15.5438 16.2318 16.4133C16.8383 16.6572 17.6968 16.5093 18.178 15.7885C18.9987 14.5242 19.7452 13.2133 20.4136 11.8624C20.4436 11.8016 20.4136 11.7561 20.352 11.7247ZM15.3623 19.3132C14.4615 18.8584 13.6377 18.2649 12.9209 17.5545C12.5891 17.2227 12.1006 16.7459 11.5856 16.1774C10.41 16.1774 9.26876 16.2954 8.04844 16.6851C6.91528 17.0396 6.80907 18.3485 7.30496 19.0312C8.14366 20.0765 8.73185 20.6405 9.67016 21.6103C10.1674 22.098 10.8352 22.3728 11.5317 22.3762C12.2283 22.3796 12.8987 22.1115 13.4007 21.6286C14.1332 20.8961 14.5837 20.4076 15.4114 19.4692C15.4605 19.4194 15.4414 19.3323 15.3616 19.3132H15.3623Z" fill="#F4B4B4"/>
</svg>
